<?xml version="1.0" encoding="UTF-8"?>
<svg version="1.1" xmlns="http://www.w3.org/2000/svg" width="488" height="1006">
<path d="M0 0 C161.04 0 322.08 0 488 0 C488 331.98 488 663.96 488 1006 C326.96 1006 165.92 1006 0 1006 C0 674.02 0 342.04 0 0 Z " fill="#ECEFEE" transform="translate(0,0)"/>
<path d="M0 0 C5.33208184 4.4077402 10.15822441 9.33631815 14.98535156 14.28295898 C17.57020012 16.9269269 20.08222857 19.42861936 22.9765625 21.73828125 C25.35116955 23.643679 26.98334868 25.57340776 28.8125 28 C33.5156231 34.01893069 38.64374992 39.5721736 43.89257812 45.11279297 C45.02909238 46.32657384 46.13558548 47.5683717 47.234375 48.81640625 C66.0248487 69.39446927 91.77166785 72.35893945 118.25 73.5625 C118.25 141.8725 118.25 210.1825 118.25 280.5625 C-42.13 280.5625 -202.51 280.5625 -367.75 280.5625 C-367.75 201.0325 -367.75 121.5025 -367.75 39.5625 C-363.79 35.6025 -359.83 31.6425 -355.75 27.5625 C-355.42 26.9025 -355.09 26.2425 -354.75 25.5625 C-354.09 25.5625 -353.43 25.5625 -352.75 25.5625 C-352.75 24.9025 -352.75 24.2425 -352.75 23.5625 C-350.29009494 21.01577476 -347.46001512 18.83757442 -344.75 16.5625 C-343.8321875 15.758125 -342.914375 14.95375 -341.96875 14.125 C-331.60166373 5.17656764 -319.84606887 -3.93947699 -305.5 -3.5625 C-287.38923529 -1.0801854 -270.57873022 14.44986269 -257.8671875 26.62109375 C-254.54342239 29.79687572 -251.07429267 32.78496224 -247.5625 35.75 C-247.00908936 36.22002441 -246.45567871 36.69004883 -245.88549805 37.17431641 C-242.98952927 39.62054783 -242.98952927 39.62054783 -239.75 41.5625 C-239.75 42.2225 -239.75 42.8825 -239.75 43.5625 C-239.00621094 43.83707031 -238.26242188 44.11164062 -237.49609375 44.39453125 C-234.95533272 45.47516788 -233.03835683 46.64121239 -230.8125 48.25 C-221.59640806 54.4911804 -211.99792277 59.6685177 -200.75 60.5625 C-199.79609375 60.64371094 -198.8421875 60.72492188 -197.859375 60.80859375 C-177.22344404 61.69993632 -158.65805693 48.1770138 -143.36328125 35.6875 C-138.24870995 31.52856609 -133.01086971 27.53348128 -127.75 23.5625 C-127.20359863 23.14709961 -126.65719727 22.73169922 -126.09423828 22.30371094 C-117.1453017 15.5411172 -107.77193492 9.927725 -97.86181641 4.68359375 C-95.97435362 3.68160195 -94.10164993 2.65692916 -92.23046875 1.625 C-82.89688773 -3.33519489 -73.14781497 -6.62067975 -63.06591797 -9.72119141 C-61.18318693 -10.30351619 -59.31056344 -10.91844516 -57.44140625 -11.54296875 C-37.21577131 -17.6536925 -16.54808265 -12.56781895 0 0 Z " fill="#7E8792" transform="translate(367.75,725.4375)"/>
<path d="M0 0 C4.0055905 4.0055905 6.20564714 6.64700119 8.9375 11.375 C9.71384622 12.69980382 10.49126596 14.02397889 11.26953125 15.34765625 C11.6970166 16.07871582 12.12450195 16.80977539 12.56494141 17.56298828 C15.37669293 22.33789534 18.25205308 27.07425594 21.125 31.8125 C21.98532837 33.24311768 21.98532837 33.24311768 22.86303711 34.70263672 C30.81768412 47.82729241 39.81917732 59.76641903 50.3125 70.96875 C52 73 52 73 52 75 C52.66 75 53.32 75 54 75 C54 75.66 54 76.32 54 77 C54.99 77.33 55.98 77.66 57 78 C57.680625 78.86625 58.36125 79.7325 59.0625 80.625 C66.47629608 89.84811536 79.63365585 96.44169644 91 99 C110.45233967 100.7691117 125.12324125 96.06864844 142 87 C142.66966797 86.64244629 143.33933594 86.28489258 144.02929688 85.91650391 C152.80973656 81.19691132 161.15654393 76.01267026 169.40234375 70.41796875 C213.84467587 40.33962781 213.84467587 40.33962781 236.375 43.40234375 C247.39638004 45.91167581 259.20085282 51.87261398 267 60.0625 C271.375295 64.20709762 275.94687304 65.45420263 281.625 67 C298.06663598 71.49805549 310.24773016 79.95211139 323.69921875 90.27416992 C324.45847656 90.84369385 325.21773438 91.41321777 326 92 C327.38711182 93.3159314 327.38711182 93.3159314 328.80224609 94.65844727 C334.48558039 98.66161082 341.81089695 97.75898801 348.4765625 97.734375 C350.00809397 97.74284523 351.53961934 97.75249081 353.07113647 97.76324463 C356.28398218 97.77961473 359.49613907 97.77695896 362.70898438 97.76171875 C365.96205543 97.74800054 369.21298506 97.76142487 372.46582031 97.80273438 C401.05280417 98.16390085 423.75678344 94.81172401 446.0859375 75.51171875 C448.72994662 73.23276719 451.43723333 71.08536687 454.1875 68.9375 C459.41296925 64.68225676 464.17176584 60.01068732 468.9375 55.25 C469.67186279 54.51644287 470.40622559 53.78288574 471.1628418 53.02709961 C474.00055666 50.15989689 476.71812791 47.36377075 479.19140625 44.171875 C481 42 481 42 486 39 C486 91.8 486 144.6 486 199 C325.62 199 165.24 199 0 199 C0 133.33 0 67.66 0 0 Z " fill="#3D4354" transform="translate(0,807)"/>
<path d="M0 0 C5.33208184 4.4077402 10.15822441 9.33631815 14.98535156 14.28295898 C17.57020012 16.9269269 20.08222857 19.42861936 22.9765625 21.73828125 C25.35116955 23.643679 26.98334868 25.57340776 28.8125 28 C33.5156231 34.01893069 38.64374992 39.5721736 43.89257812 45.11279297 C45.02909238 46.32657384 46.13558548 47.5683717 47.234375 48.81640625 C61.06086328 63.95824629 81.84901787 71.88421038 101.91088867 72.90332031 C103.87139908 72.98683339 105.83210439 73.06588226 107.79296875 73.140625 C109.30812073 73.2037085 109.30812073 73.2037085 110.85388184 73.26806641 C113.31912242 73.37014676 115.78445126 73.46821026 118.25 73.5625 C118.42781506 80.14574702 118.55020826 86.72837292 118.63452148 93.31347656 C118.66967552 95.55231873 118.71740932 97.79100074 118.77807617 100.02929688 C118.86321526 103.25170406 118.90273927 106.471984 118.93359375 109.6953125 C118.98778725 111.19096237 118.98778725 111.19096237 119.04307556 112.71682739 C119.04692169 119.55860682 119.04692169 119.55860682 116.71920776 122.49085999 C114.96320559 123.99593345 113.1687587 125.27646324 111.25 126.5625 C109.96254552 127.9238639 108.70375389 129.31409357 107.5 130.75 C106.42279639 132.02603325 105.33987572 133.29727299 104.25 134.5625 C103.81558594 135.14644531 103.38117188 135.73039063 102.93359375 136.33203125 C101.25 137.5625 101.25 137.5625 98.45703125 137.59375 C75.8061173 134.04884287 61.57504885 125.53925732 45.25 109.5625 C44.71246094 109.04010742 44.17492187 108.51771484 43.62109375 107.97949219 C38.5925591 103.08277974 33.72893868 98.1038996 29.171875 92.765625 C26.1981261 89.35669333 23.0893418 86.07230996 20.00195312 82.76660156 C16.81936443 79.33420523 13.77292752 75.82252925 10.79003906 72.21582031 C-5.43061784 52.6931394 -26.13746012 39.4747888 -51.75 36.5625 C-65.94829224 35.76678207 -79.15007302 36.31709761 -92.75 40.5625 C-94.28333984 41.03042969 -94.28333984 41.03042969 -95.84765625 41.5078125 C-114.65797261 47.8043741 -127.31395042 60.85181708 -140.875 74.625 C-143.00598737 76.78382917 -145.13852437 78.94106997 -147.2741394 81.09532166 C-148.59272257 82.42593055 -149.90863025 83.75919876 -151.22122192 85.09571838 C-161.54001382 95.52539058 -174.6177205 108.37613691 -190.1875 108.875 C-201.99077579 108.62992194 -212.30762769 103.04580275 -222.4375 97.5 C-237.47768146 89.29857297 -251.09239182 84.2424507 -268.1875 89.0625 C-279.83730018 93.18097077 -290.70625733 98.51628863 -300.85473633 105.55566406 C-307.01668656 109.82369563 -313.42398001 113.63840746 -319.87426758 117.45214844 C-323.3819461 119.529474 -326.85738092 121.59990204 -330.21484375 123.9140625 C-332.75 125.5625 -332.75 125.5625 -334.75 125.5625 C-334.75 127.2125 -334.75 128.8625 -334.75 130.5625 C-338.67002241 126.91902238 -341.54351077 123.08664109 -344.3125 118.5 C-344.94333496 117.47519531 -344.94333496 117.47519531 -345.58691406 116.4296875 C-348.04384713 112.42261067 -350.45322316 108.38769486 -352.85546875 104.34765625 C-353.37874756 103.46924072 -353.90202637 102.5908252 -354.44116211 101.68579102 C-355.45348258 99.98220707 -356.46108895 98.27580978 -357.46313477 96.56616211 C-357.93420654 95.77089111 -358.40527832 94.97562012 -358.890625 94.15625 C-359.29829102 93.46208984 -359.70595703 92.76792969 -360.12597656 92.05273438 C-361.63549428 89.62134447 -361.63549428 89.62134447 -363.22909546 87.83099365 C-367.60023754 82.59905552 -368.70410138 78.7709122 -368.7578125 72.015625 C-368.7777829 71.12317078 -368.7977533 70.23071655 -368.81832886 69.31121826 C-368.84854176 67.4322752 -368.86278506 65.55301383 -368.86181641 63.67382812 C-368.87492346 60.82911249 -368.98382878 57.99848738 -369.09765625 55.15625 C-369.2473344 46.86993683 -369.34181436 40.21245507 -363.42526245 33.9196167 C-360.97289333 31.64622503 -358.39588152 29.60697915 -355.75 27.5625 C-355.42 26.9025 -355.09 26.2425 -354.75 25.5625 C-354.09 25.5625 -353.43 25.5625 -352.75 25.5625 C-352.75 24.9025 -352.75 24.2425 -352.75 23.5625 C-350.29009494 21.01577476 -347.46001512 18.83757442 -344.75 16.5625 C-343.8321875 15.758125 -342.914375 14.95375 -341.96875 14.125 C-331.60166373 5.17656764 -319.84606887 -3.93947699 -305.5 -3.5625 C-287.38923529 -1.0801854 -270.57873022 14.44986269 -257.8671875 26.62109375 C-254.54342239 29.79687572 -251.07429267 32.78496224 -247.5625 35.75 C-247.00908936 36.22002441 -246.45567871 36.69004883 -245.88549805 37.17431641 C-242.98952927 39.62054783 -242.98952927 39.62054783 -239.75 41.5625 C-239.75 42.2225 -239.75 42.8825 -239.75 43.5625 C-239.00621094 43.83707031 -238.26242188 44.11164062 -237.49609375 44.39453125 C-234.95533272 45.47516788 -233.03835683 46.64121239 -230.8125 48.25 C-221.59640806 54.4911804 -211.99792277 59.6685177 -200.75 60.5625 C-199.79609375 60.64371094 -198.8421875 60.72492188 -197.859375 60.80859375 C-177.22344404 61.69993632 -158.65805693 48.1770138 -143.36328125 35.6875 C-138.24870995 31.52856609 -133.01086971 27.53348128 -127.75 23.5625 C-127.20359863 23.14709961 -126.65719727 22.73169922 -126.09423828 22.30371094 C-117.1453017 15.5411172 -107.77193492 9.927725 -97.86181641 4.68359375 C-95.97435362 3.68160195 -94.10164993 2.65692916 -92.23046875 1.625 C-82.89688773 -3.33519489 -73.14781497 -6.62067975 -63.06591797 -9.72119141 C-61.18318693 -10.30351619 -59.31056344 -10.91844516 -57.44140625 -11.54296875 C-37.21577131 -17.6536925 -16.54808265 -12.56781895 0 0 Z " fill="#A0AAB6" transform="translate(367.75,725.4375)"/>
<path d="M0 0 C1.3108823 0.37610182 2.6220742 0.75112642 3.93359375 1.125 C5.45146484 1.558125 5.45146484 1.558125 7 2 C7 2.66 7 3.32 7 4 C8.175625 4.1546875 8.175625 4.1546875 9.375 4.3125 C16.09544101 5.5870664 22.52271631 7.74783462 28.89501953 10.20727539 C58.65847105 21.4160352 88.44692183 22.48229476 117.984375 9.70947266 C121.12525719 8.28650703 124.25280932 6.83850415 127.375 5.375 C144.33639305 -2.56657648 158.5201435 -7.36926532 177.1953125 -1.16796875 C180.00412317 0.00171703 182.44048869 1.36057445 185 3 C185.68320312 3.43699219 186.36640625 3.87398437 187.0703125 4.32421875 C192.33790393 7.81925565 197.44905012 11.49020182 202.51953125 15.265625 C204.8870457 17.01645107 204.8870457 17.01645107 207.23828125 18.09375 C209.81542418 19.41946432 210.53589262 21.52227982 212 24 C215.79145593 28.5241606 219.86026201 31.16827231 225 34 C224.97679687 32.72382812 224.95359375 31.44765625 224.9296875 30.1328125 C224.91093171 28.4635475 224.89273131 26.7942762 224.875 25.125 C224.85824219 24.28324219 224.84148437 23.44148437 224.82421875 22.57421875 C224.81777344 21.76855469 224.81132812 20.96289062 224.8046875 20.1328125 C224.79421387 19.38918457 224.78374023 18.64555664 224.77294922 17.87939453 C225 16 225 16 227 14 C227 34.46 227 54.92 227 76 C66.62 76 -93.76 76 -259 76 C-259 68.08 -259 60.16 -259 52 C-251.65625 50.71484375 -251.65625 50.71484375 -249.10302734 50.26811218 C-244.76910564 49.50979673 -240.43527006 48.75099343 -236.1015625 47.99145508 C-227.56841036 46.49637242 -219.03484752 45.00393868 -210.49841309 43.5276947 C-206.87002551 42.9000646 -203.24200788 42.27031083 -199.61401367 41.64041138 C-197.88258921 41.34041989 -196.15098287 41.04147604 -194.41918945 40.74362183 C-191.98731915 40.3252574 -189.55610944 39.90322886 -187.125 39.48046875 C-186.4182312 39.35988098 -185.7114624 39.23929321 -184.98327637 39.11505127 C-181.59856217 38.52295437 -178.31405669 37.82604238 -175.00244141 36.90649414 C-170.92980187 35.86200708 -167.01573606 35.84215356 -162.8359375 36.015625 C-161.2851831 36.05068737 -159.73440005 36.08450104 -158.18359375 36.1171875 C-155.7874042 36.17864076 -153.39272391 36.24930837 -150.99755859 36.34277344 C-139.45048982 36.76787752 -131.33405864 35.6510975 -121 30 C-119.78787842 29.34064453 -119.78787842 29.34064453 -118.55126953 28.66796875 C-116.45065927 27.45972479 -114.41169003 26.18769298 -112.375 24.875 C-110.84946927 23.91975647 -109.32340638 22.96536239 -107.796875 22.01171875 C-106.62801758 21.27574463 -106.62801758 21.27574463 -105.43554688 20.52490234 C-70.55878351 -1.3115315 -40.63196446 -11.94234547 0 0 Z " fill="#242737" transform="translate(259,930)"/>
<path d="M0 0 C3.26317819 2.66687993 6.37480217 5.4857938 9.46484375 8.34960938 C14.46875239 12.90720027 19.85485541 17.01120033 25.26171875 21.07617188 C25.85944092 21.52806885 26.45716309 21.97996582 27.07299805 22.44555664 C28.25363381 23.33605386 29.43860553 24.22083614 30.62817383 25.09936523 C32.03593993 26.1608586 33.39432859 27.28723237 34.7421875 28.42382812 C34.7421875 29.08382812 34.7421875 29.74382813 34.7421875 30.42382812 C33.55625 30.83632813 32.3703125 31.24882813 31.1484375 31.67382812 C20.24534405 35.53378167 9.89112164 39.87339737 -0.2578125 45.42382812 C-0.94584961 45.79878418 -1.63388672 46.17374023 -2.34277344 46.56005859 C-16.25529906 54.23207835 -28.57923506 63.611145 -40.91796875 73.56835938 C-59.80168881 88.5429287 -78.94038062 101.87002401 -103.91015625 100.25195312 C-116.71178191 98.63490567 -130.35373376 90.41461893 -140.2578125 82.42382812 C-140.2578125 81.76382813 -140.2578125 81.10382813 -140.2578125 80.42382812 C-141.08539063 80.05644531 -141.08539063 80.05644531 -141.9296875 79.68164062 C-149.33129757 75.68278418 -155.52454195 69.28697928 -161.33203125 63.28710938 C-164.38927078 60.3290906 -167.78164576 57.86454094 -171.2578125 55.42382812 C-169.8412588 50.52864887 -166.84523825 47.81386032 -163.1328125 44.54882812 C-162.54314697 44.01781494 -161.95348145 43.48680176 -161.34594727 42.93969727 C-159.6584376 41.42443444 -157.96097962 39.92144973 -156.2578125 38.42382812 C-155.52691406 37.78058594 -154.79601562 37.13734375 -154.04296875 36.47460938 C-152.81377475 35.40133851 -151.58200757 34.33100737 -150.34765625 33.26367188 C-147.61410612 30.85712587 -144.93670548 28.3907611 -142.2578125 25.92382812 C-138.29506858 22.27579258 -134.30084284 18.67364124 -130.2265625 15.15039062 C-128.81521041 13.91265724 -127.42123468 12.65500132 -126.0390625 11.38476562 C-85.08671598 -26.24352679 -45.20986051 -35.97091599 0 0 Z " fill="#C5CDD7" transform="translate(268.2578125,686.576171875)"/>
<path d="M0 0 C3.68673504 3.59018401 6.35809902 6.91084861 8.9375 11.375 C9.71384622 12.69980382 10.49126596 14.02397889 11.26953125 15.34765625 C11.6970166 16.07871582 12.12450195 16.80977539 12.56494141 17.56298828 C15.37669293 22.33789534 18.25205308 27.07425594 21.125 31.8125 C21.98532837 33.24311768 21.98532837 33.24311768 22.86303711 34.70263672 C30.81768412 47.82729241 39.81917732 59.76641903 50.3125 70.96875 C52 73 52 73 52 75 C52.66 75 53.32 75 54 75 C54 75.66 54 76.32 54 77 C54.99 77.33 55.98 77.66 57 78 C57.680625 78.86625 58.36125 79.7325 59.0625 80.625 C66.47629608 89.84811536 79.63365585 96.44169644 91 99 C110.45233967 100.7691117 125.12324125 96.06864844 142 87 C142.66966797 86.64244629 143.33933594 86.28489258 144.02929688 85.91650391 C152.80973656 81.19691132 161.15654393 76.01267026 169.40234375 70.41796875 C213.84467587 40.33962781 213.84467587 40.33962781 236.375 43.40234375 C248.40872063 46.14216407 262.94716782 53.43134058 271 63 C271 63.99 271 64.98 271 66 C269.58074219 66.11214844 269.58074219 66.11214844 268.1328125 66.2265625 C245.99776262 68.29348339 228.10460501 77.89120626 209.5 89.4375 C208.59733398 89.99566406 207.69466797 90.55382812 206.76464844 91.12890625 C202.84393232 93.56392212 198.95197057 96.01231065 195.15234375 98.6328125 C171.42689415 114.48651373 139.56810483 120.29035944 112 126 C111.01757324 126.2047998 110.03514648 126.40959961 109.02294922 126.62060547 C92.61071629 129.9507567 75.30011535 131.56905841 60.35546875 122.5859375 C55.41544195 119.25981664 50.69252621 115.66393522 46 112 C45.38898437 111.53464844 44.77796875 111.06929687 44.1484375 110.58984375 C40.56852975 107.76611972 37.70812736 104.4727969 34.76953125 101.015625 C33.16922497 99.19275957 31.51130225 97.53961978 29.75 95.875 C22.54901612 88.80405646 16.51691695 80.27304402 10.63890076 72.09211731 C8.98091578 69.89986696 8.98091578 69.89986696 6.78138733 67.7129364 C1.0083437 61.5289054 -1.02454065 57.21830394 -1.01966858 48.758255 C-0.97321701 47.52447617 -0.92676544 46.29069733 -0.87890625 45.01953125 C-0.86617172 43.72552902 -0.85343719 42.43152679 -0.84031677 41.09831238 C-0.80632108 37.69539237 -0.71826793 34.29605652 -0.61798096 30.89453125 C-0.52509212 27.40869625 -0.48463671 23.92226872 -0.43945312 20.43554688 C-0.3435884 13.62224639 -0.19045966 6.81129624 0 0 Z " fill="#5C6472" transform="translate(0,807)"/>
<path d="M0 0 C1.4840332 -0.00386719 1.4840332 -0.00386719 2.99804688 -0.0078125 C4.00802734 -0.00007812 5.01800781 0.00765625 6.05859375 0.015625 C7.04150391 0.00789062 8.02441406 0.00015625 9.03710938 -0.0078125 C24.0985975 0.03108095 36.8004946 2.96809962 50.74609375 8.203125 C53.66555692 9.28137235 56.58790078 10.35159073 59.51171875 11.41796875 C60.5566449 11.79965714 60.5566449 11.79965714 61.62268066 12.1890564 C80.51567289 19.01947409 98.73010487 19.96832626 118.43359375 16.265625 C144.26635124 11.49550753 163.88450205 15.7361314 187.49609375 26.265625 C199.52637936 31.59811347 211.620312 36.37514338 224.49609375 39.265625 C224.49609375 39.595625 224.49609375 39.925625 224.49609375 40.265625 C119.55609375 40.265625 14.61609375 40.265625 -93.50390625 40.265625 C-93.50390625 32.345625 -93.50390625 24.425625 -93.50390625 16.265625 C-86.16015625 14.98046875 -86.16015625 14.98046875 -83.60693359 14.53373718 C-79.27301189 13.77542173 -74.93917631 13.01661843 -70.60546875 12.25708008 C-62.07231661 10.76199742 -53.53875377 9.26956368 -45.00231934 7.7933197 C-41.37393176 7.1656896 -37.74591413 6.53593583 -34.11791992 5.90603638 C-32.38649546 5.60604489 -30.65488912 5.30710104 -28.9230957 5.00924683 C-26.4912254 4.5908824 -24.06001569 4.16885386 -21.62890625 3.74609375 C-20.92213745 3.62550598 -20.21536865 3.50491821 -19.48718262 3.38067627 C-16.05870779 2.7809242 -12.70594246 2.07907112 -9.34008789 1.18969727 C-6.05876675 0.39928165 -3.34914148 0.00870311 0 0 Z " fill="#070A18" transform="translate(93.50390625,965.734375)"/>
<path d="M0 0 C-0.33 28.38 -0.66 56.76 -1 86 C-22.92085918 86 -36.91792869 85.44059188 -55 75 C-56.02609375 74.42636719 -57.0521875 73.85273437 -58.109375 73.26171875 C-73.16487258 64.08600334 -86.73631868 48.90244386 -96 34 C-93.6414455 32.82072275 -91.96676264 32.76955296 -89.3359375 32.60546875 C-63.12660651 30.78565441 -40.36286447 23.44960712 -18.82421875 8.05078125 C-18.11475098 7.54587158 -17.4052832 7.04096191 -16.67431641 6.52075195 C-15.30121919 5.53196322 -13.93937389 4.52729163 -12.59130859 3.50463867 C-11.96434082 3.04935791 -11.33737305 2.59407715 -10.69140625 2.125 C-10.14685791 1.71507812 -9.60230957 1.30515625 -9.04125977 0.8828125 C-7 0 -7 0 0 0 Z " fill="#C5CDD7" transform="translate(487,713)"/>
<path d="M0 0 C1.69256787 3.38513574 1.07637941 7.2281132 1.02172852 10.94775391 C1.01212097 11.87463516 1.00251343 12.80151642 0.99261475 13.75648499 C0.95954965 16.82991963 0.91924595 19.90321543 0.87890625 22.9765625 C0.85461247 25.10362249 0.83076855 27.23068767 0.80735779 29.35775757 C0.74444299 34.96380503 0.67539732 40.56976108 0.60510254 46.17572021 C0.53448581 51.89314602 0.46962902 57.6106368 0.40429688 63.328125 C0.27518923 74.55215472 0.13960885 85.77609633 0 97 C-6.75 95.375 -6.75 95.375 -9 92 C-10.175625 91.5359375 -10.175625 91.5359375 -11.375 91.0625 C-14 90 -14 90 -15.6171875 88.2421875 C-27.41034834 77.14501648 -48.02415616 69.89907553 -64.03125 70.36328125 C-74.7491207 71.4484888 -85.40818242 74.57516508 -95.81884766 77.24389648 C-108.51392648 80.26129166 -118.10292179 79.42278439 -130 74 C-130.8765625 73.62746094 -131.753125 73.25492188 -132.65625 72.87109375 C-139.61374978 69.71159622 -145.3912696 65.16088501 -151 60 C-151 59.67 -151 59.34 -151 59 C-149.75450127 59.00452431 -149.75450127 59.00452431 -148.48384094 59.00914001 C-140.55804616 59.03162756 -132.6331477 59.01968555 -124.70745564 58.97153378 C-120.6352005 58.94794133 -116.56375246 58.93647239 -112.49145508 58.95532227 C-83.90436099 59.07332523 -61.31948795 55.8776485 -38.9140625 36.51171875 C-36.27005338 34.23276719 -33.56276667 32.08536687 -30.8125 29.9375 C-25.58703075 25.68225676 -20.82823416 21.01068732 -16.0625 16.25 C-15.32813721 15.51644287 -14.59377441 14.78288574 -13.8371582 14.02709961 C-10.3351729 10.48872374 -7.06609157 6.92957321 -4 3 C-1.75 1.1875 -1.75 1.1875 0 0 Z " fill="#5C6372" transform="translate(485,846)"/>
<path d="M0 0 C1.32 0 2.64 0 4 0 C4 12.54 4 25.08 4 38 C-42.2 38 -88.4 38 -136 38 C-136 37.67 -136 37.34 -136 37 C-134.90042969 36.84144531 -133.80085938 36.68289063 -132.66796875 36.51953125 C-123.67349974 35.13639449 -116.13242339 33.21345613 -108 29 C-105.50360922 27.82459354 -103.0045147 26.65773262 -100.5 25.5 C-99.21196969 24.90031893 -97.92420479 24.30006744 -96.63671875 23.69921875 C-96.01845215 23.41095215 -95.40018555 23.12268555 -94.76318359 22.82568359 C-93.17910712 22.08387431 -91.5990513 21.33349361 -90.01953125 20.58203125 C-72.85504138 12.53230657 -55.46212766 8.76222898 -37 15 C-26.15576194 19.45676485 -13.35478295 25.64521705 -5 34 C-2.68234271 34.71927295 -0.34904126 35.3909893 2 36 C1.88171792 31.35505142 1.75746726 26.71031535 1.62768555 22.06567383 C1.58437695 20.48563985 1.54269894 18.90556031 1.50268555 17.32543945 C1.44488417 15.05405952 1.3812184 12.78290811 1.31640625 10.51171875 C1.29133751 9.45219246 1.29133751 9.45219246 1.26576233 8.3712616 C1.1740253 5.3335176 0.96792314 2.90376942 0 0 Z " fill="#070918" transform="translate(482,968)"/>
<path d="M0 0 C19.22042039 0.80085085 38.38859425 1.67406644 57.375 4.9375 C58.75534424 5.17400269 58.75534424 5.17400269 60.16357422 5.4152832 C65.49958667 6.38781608 70.614684 7.71185257 75.79052734 9.32885742 C78.37770469 10.11473041 80.9673154 10.69393 83.625 11.1875 C84.46289062 11.34605469 85.30078125 11.50460937 86.1640625 11.66796875 C86.76992187 11.77753906 87.37578125 11.88710938 88 12 C88 12.33 88 12.66 88 13 C66.96961861 17.43642934 45.80358327 21.05884362 24.62078857 24.68144226 C23.78058167 24.82547989 22.94037476 24.96951752 22.07470703 25.11791992 C21.24940491 25.25886078 20.42410278 25.39980164 19.5737915 25.54501343 C17.75541284 25.86646055 15.93996601 26.20470841 14.12689209 26.55484009 C13.17220032 26.73823944 12.21750854 26.92163879 11.23388672 27.1105957 C9.94573563 27.36508232 9.94573563 27.36508232 8.63156128 27.62471008 C6 28 6 28 0 28 C0 18.76 0 9.52 0 0 Z " fill="#242738" transform="translate(0,954)"/>
<path d="M0 0 C0.99 0.33 1.98 0.66 3 1 C-1.40102186 5.04418225 -6.02783736 7.79546271 -11.3125 10.57421875 C-13.5742724 11.77414161 -15.75302344 13.04265762 -17.9375 14.375 C-21 16 -21 16 -25 16 C-25 16.66 -25 17.32 -25 18 C-39.79922264 23.3815355 -53.30777486 25.66072527 -69 25 C-69 24.67 -69 24.34 -69 24 C-68.37134033 23.93006836 -67.74268066 23.86013672 -67.0949707 23.78808594 C-42.2106081 20.9566447 -20.91367682 13.94245122 0 0 Z " fill="#BCC3CB" transform="translate(467,722)"/>
<path d="M0 0 C7.89797699 3.32457578 11.40510561 13.40542103 15.10839844 20.68237305 C17.07324916 24.49089207 19.26101463 27.71434472 22 31 C26 37.16049383 26 37.16049383 26 40 C26.66 40 27.32 40 28 40 C28.12375 40.804375 28.2475 41.60875 28.375 42.4375 C28.58125 43.283125 28.7875 44.12875 29 45 C29.66 45.33 30.32 45.66 31 46 C30.01 46 29.02 46 28 46 C21.8057165 39.130459 17.51088681 30.28924158 12.875 22.3125 C7.75080902 13.35495238 7.75080902 13.35495238 2.0078125 4.79296875 C0 2 0 2 0 0 Z " fill="#B7C0CC" transform="translate(1,806)"/>
<path d="M0 0 C0.66 0.33 1.32 0.66 2 1 C0.60440786 4.43809938 -0.72155349 5.74558743 -4 7.4375 C-5.20052002 8.06531372 -5.20052002 8.06531372 -6.42529297 8.70581055 C-7.27494629 9.13289307 -8.12459961 9.55997559 -9 10 C-9.86125488 10.44061768 -10.72250977 10.88123535 -11.60986328 11.33520508 C-27.89813917 19.58393252 -27.89813917 19.58393252 -34 18 C-31.67444856 16.44963238 -29.83599748 15.43595965 -27.3125 14.375 C-22.74703785 12.37761031 -18.27593228 10.21356795 -13.8125 8 C-13.13550049 7.66790527 -12.45850098 7.33581055 -11.76098633 6.99365234 C-7.61676105 4.92585819 -3.80072636 2.64809551 0 0 Z " fill="#F4F7FB" transform="translate(461,722)"/>
<path d="M0 0 C0.495 1.485 0.495 1.485 1 3 C0.40316406 3.25652344 -0.19367187 3.51304687 -0.80859375 3.77734375 C-3.21468102 5.11977747 -4.36343224 6.41150629 -6.0625 8.5625 C-9.78094113 13.00037865 -14.06208557 16.40761321 -18.64453125 19.921875 C-20.89842894 21.91038838 -21.9851965 23.2078239 -23 26 C-23 26.66 -23 27.32 -23 28 C-23.556875 28.12375 -24.11375 28.2475 -24.6875 28.375 C-27.22114364 29.05976855 -29.57921032 29.99133763 -32 31 C-30.57701102 29.33984619 -29.15344741 27.68024699 -27.7265625 26.0234375 C-26.58425215 24.68471179 -25.45376463 23.3357983 -24.3359375 21.9765625 C-23.55089844 21.02910156 -23.55089844 21.02910156 -22.75 20.0625 C-22.27046875 19.47597656 -21.7909375 18.88945313 -21.296875 18.28515625 C-20 17 -20 17 -18 17 C-18 16.34 -18 15.68 -18 15 C-16.6015625 13.5546875 -16.6015625 13.5546875 -14.625 11.875 C-13.90570312 11.26269531 -13.18640625 10.65039062 -12.4453125 10.01953125 C-8.33814388 6.62750861 -4.18192306 3.29926307 0 0 Z " fill="#969EA8" transform="translate(33,734)"/>
<path d="M0 0 C0.66 0.33 1.32 0.66 2 1 C0.0843735 3.08429801 -1.83246061 5.16746303 -3.75 7.25 C-4.28882812 7.83652344 -4.82765625 8.42304687 -5.3828125 9.02734375 C-11.83338878 16.02857898 -11.83338878 16.02857898 -14 18 C-14.66 18 -15.32 18 -16 18 C-16.33 18.99 -16.66 19.98 -17 21 C-19.94447871 23.06909314 -22.51839961 24.21311377 -26 25 C-22.3909093 20.57886389 -18.71092533 16.73599099 -14.3671875 13.04296875 C-11.35482771 10.44319289 -8.42779788 7.75672908 -5.5 5.0625 C-4.95907715 4.56524414 -4.4181543 4.06798828 -3.86083984 3.55566406 C-2.5731891 2.37120773 -1.28649101 1.18571588 0 0 Z " fill="#BFC6D0" transform="translate(132,707)"/>
<path d="M0 0 C0.680625 0.19078125 1.36125 0.3815625 2.0625 0.578125 C3.0834375 0.84882812 3.0834375 0.84882812 4.125 1.125 C6.0625 1.828125 6.0625 1.828125 9.0625 3.828125 C11.07016362 4.35222786 11.07016362 4.35222786 13.25 4.703125 C18.02829877 5.67445131 21.79213684 7.498836 26.0625 9.828125 C26.0625 10.488125 26.0625 11.148125 26.0625 11.828125 C26.7225 11.828125 27.3825 11.828125 28.0625 11.828125 C28.0625 12.488125 28.0625 13.148125 28.0625 13.828125 C29.3825 14.488125 30.7025 15.148125 32.0625 15.828125 C28.17534129 15.828125 25.82348643 14.09800522 22.5625 12.203125 C13.84391611 7.3104776 4.63981168 4.54977224 -4.9375 1.828125 C-1.9375 -0.171875 -1.9375 -0.171875 0 0 Z " fill="#9198A5" transform="translate(277.9375,870.171875)"/>
<path d="M0 0 C0 0.99 0 1.98 0 3 C-1.80078125 4.32421875 -1.80078125 4.32421875 -4.3125 5.6875 C-9.41013186 8.55491792 -13.89890538 11.90266709 -18.45703125 15.55859375 C-21 17 -21 17 -23.82421875 16.72265625 C-24.90123047 16.36494141 -24.90123047 16.36494141 -26 16 C-23.67827222 12.51740833 -22.18951828 11.95589848 -18.4375 10.25 C-13.31627542 7.80018343 -9.13482486 5.01543591 -4.83984375 1.3203125 C-3 0 -3 0 0 0 Z " fill="#565D6B" transform="translate(446,885)"/>
<path d="M0 0 C3.30546554 3.04161463 5.51524014 6.21189946 7.8125 10.0625 C8.50414833 11.21678165 9.19687822 12.37041584 9.890625 13.5234375 C10.41172852 14.3911377 10.41172852 14.3911377 10.94335938 15.27636719 C13.14412375 18.86633864 15.50624702 22.35616349 17.84765625 25.85546875 C18.22792969 26.56316406 18.60820313 27.27085937 19 28 C18.67 28.66 18.34 29.32 18 30 C3.62790698 11.25581395 3.62790698 11.25581395 -1 2 C-0.67 1.34 -0.34 0.68 0 0 Z " fill="#4E5764" transform="translate(17,834)"/>
<path d="M0 0 C0.66 0.33 1.32 0.66 2 1 C2 1.66 2 2.32 2 3 C0.45892578 3.74443359 0.45892578 3.74443359 -1.11328125 4.50390625 C-8.70072344 8.21046809 -15.95784702 12.01074844 -22.9609375 16.75 C-25 18 -25 18 -27 18 C-27 17.34 -27 16.68 -27 16 C-25.35546875 14.74609375 -25.35546875 14.74609375 -23.1875 13.4375 C-22.47980469 13.00308594 -21.77210938 12.56867187 -21.04296875 12.12109375 C-19 11 -19 11 -16 10 C-14.88625 8.824375 -14.88625 8.824375 -13.75 7.625 C-10.66808883 4.68317571 -7.95428019 3.50981607 -4 2 C-3.236875 1.5875 -2.47375 1.175 -1.6875 0.75 C-1.130625 0.5025 -0.57375 0.255 0 0 Z " fill="#45495A" transform="translate(186,929)"/>
<path d="M0 0 C0.66 0.99 1.32 1.98 2 3 C1.52691406 3.35191406 1.05382812 3.70382812 0.56640625 4.06640625 C-3.22352827 6.89592851 -6.99859286 9.74456632 -10.75 12.625 C-11.46671875 13.17414062 -12.1834375 13.72328125 -12.921875 14.2890625 C-15.08315382 15.99453309 -15.08315382 15.99453309 -17.078125 18.2109375 C-19 20 -19 20 -22 20 C-22 19.34 -22 18.68 -22 18 C-20.38617052 16.54340023 -18.70636784 15.15951049 -17 13.8125 C-12.78453296 10.44447221 -8.67399581 7.01080557 -4.65625 3.41015625 C-3 2 -3 2 0 0 Z " fill="#BAC1CB" transform="translate(164,680)"/>
<path d="M0 0 C3.54314159 1.56096448 6.22849188 3.70671541 9.1875 6.1875 C14.05061955 10.22702673 18.98611637 14.14983257 24 18 C16.44075889 18 6.27249556 9.26023395 1 4 C0.2578125 1.79296875 0.2578125 1.79296875 0 0 Z " fill="#BBC2CC" transform="translate(275,694)"/>
<path d="M0 0 C0 0.66 0 1.32 0 2 C-3.78834888 3.28751357 -7.57864846 4.56909069 -11.37084961 5.84521484 C-12.66046159 6.28011228 -13.94953029 6.71662422 -15.23803711 7.15478516 C-17.0908453 7.78452574 -18.94578889 8.40797257 -20.80078125 9.03125 C-21.91622314 9.40830078 -23.03166504 9.78535156 -24.1809082 10.17382812 C-27 11 -27 11 -30 11 C-30 10.34 -30 9.68 -30 9 C-29.38253906 8.81824219 -28.76507813 8.63648438 -28.12890625 8.44921875 C-21.53574063 6.49234311 -15.01219887 4.37722814 -8.5078125 2.14453125 C-7.70085937 1.86996094 -6.89390625 1.59539063 -6.0625 1.3125 C-5.33160156 1.06113281 -4.60070312 0.80976562 -3.84765625 0.55078125 C-2 0 -2 0 0 0 Z " fill="#646C7B" transform="translate(176,913)"/>
<path d="M0 0 C1.6415049 3.2830098 0.51888624 6.42545033 0 10 C-0.33 9.34 -0.66 8.68 -1 8 C-2.67299959 8.65061095 -4.33859237 9.32033324 -6 10 C-6.7425 10.28875 -7.485 10.5775 -8.25 10.875 C-10.20052771 11.87612831 -10.20052771 11.87612831 -10.75 14.125 C-10.8325 14.74375 -10.915 15.3625 -11 16 C-12.32 15.67 -13.64 15.34 -15 15 C-14.54109375 14.55269531 -14.0821875 14.10539063 -13.609375 13.64453125 C-10.85633163 10.93197382 -8.2215226 8.27848555 -5.8125 5.25 C-4.04730711 3.05872607 -2.31845332 1.57323618 0 0 Z " fill="#4F5762" transform="translate(485,846)"/>
<path d="M0 0 C0 0.33 0 0.66 0 1 C-5.48675196 2.86783046 -10.22192976 3.2358396 -16 3 C-16 3.66 -16 4.32 -16 5 C-18.64 5.66 -21.28 6.32 -24 7 C-23 4 -23 4 -21.109375 2.8671875 C-13.42664619 -0.36362892 -8.25700205 -1.16929223 0 0 Z " fill="#9DA6AF" transform="translate(66,723)"/>
<path d="M0 0 C9.62278613 1.37468373 18.63295059 7.92385351 26 14 C25.01 14.495 25.01 14.495 24 15 C22.1081543 14.13549805 22.1081543 14.13549805 19.82421875 12.76171875 C18.99599609 12.27123047 18.16777344 11.78074219 17.31445312 11.27539062 C16.44755859 10.75138672 15.58066406 10.22738281 14.6875 9.6875 C12.9849164 8.66748948 11.28053904 7.65046597 9.57421875 6.63671875 C8.81713623 6.17998779 8.06005371 5.72325684 7.2800293 5.25268555 C4.91245247 3.95189995 2.52544537 2.95264622 0 2 C0 1.34 0 0.68 0 0 Z " fill="#272D3D" transform="translate(289,877)"/>
<path d="M0 0 C0.66 0.33 1.32 0.66 2 1 C-1.20934864 3.91758967 -3.7088208 5.29744839 -7.90625 6.30078125 C-11.6486204 7.5505654 -14.95896696 9.67223136 -18.3515625 11.66015625 C-20.95060862 12.97501291 -23.13254453 13.5807511 -26 14 C-23.97278175 11.81326802 -22.124438 10.37769478 -19.453125 9.0625 C-18.7725 8.72476563 -18.091875 8.38703125 -17.390625 8.0390625 C-16.33101563 7.52472656 -16.33101563 7.52472656 -15.25 7 C-14.5590625 6.65710938 -13.868125 6.31421875 -13.15625 5.9609375 C-11.11279323 4.95457345 -9.06027941 3.97141677 -7 3 C-6.33806641 2.68546875 -5.67613281 2.3709375 -4.99414062 2.046875 C-3.35716466 1.30048181 -1.6807095 0.64187901 0 0 Z " fill="#959DA8" transform="translate(289,721)"/>
<path d="M0 0 C3.77236125 0.74892466 7.02920175 2.30956825 10.5 3.9375 C11.6240625 4.46214844 12.748125 4.98679687 13.90625 5.52734375 C16.28521054 6.659753 18.65056446 7.80800697 21 9 C21 9.66 21 10.32 21 11 C16.11145869 10.45189082 12.55531881 8.9760612 8.25 6.625 C7.12078125 6.01914062 5.9915625 5.41328125 4.828125 4.7890625 C2 3 2 3 0 0 Z " fill="#D0D9E4" transform="translate(428,784)"/>
<path d="M0 0 C1.65 0.33 3.3 0.66 5 1 C0.78395577 6.16465418 -3.61919239 11.01287003 -9 15 C-9.66 15 -10.32 15 -11 15 C-9.44997253 11.11602311 -6.99523379 8.97020381 -3.875 6.25 C-2.50988281 5.05117188 -2.50988281 5.05117188 -1.1171875 3.828125 C-0.41851562 3.22484375 0.28015625 2.6215625 1 2 C0.67 1.34 0.34 0.68 0 0 Z " fill="#868E9B" transform="translate(463,862)"/>
<path d="M0 0 C4.15071409 3.80543345 6.89622473 7.75572253 9.6875 12.625 C12.7409329 17.87549523 12.7409329 17.87549523 16 23 C15.67 23.99 15.34 24.98 15 26 C14.63648438 25.38253906 14.27296875 24.76507812 13.8984375 24.12890625 C8.47767863 14.14578773 8.47767863 14.14578773 1.32421875 5.49609375 C0 4 0 4 0 0 Z " fill="#454D59" transform="translate(0,807)"/>
<path d="M0 0 C-1.16917969 0.60328125 -2.33835937 1.2065625 -3.54296875 1.828125 C-5.09129464 2.63513122 -6.63946347 3.44243884 -8.1875 4.25 C-8.95642578 4.64574219 -9.72535156 5.04148437 -10.51757812 5.44921875 C-14.72168245 7.65050943 -18.31826705 9.9769575 -22 13 C-22.66 13 -23.32 13 -24 13 C-24 12.34 -24 11.68 -24 11 C-20.53846154 8 -20.53846154 8 -18 8 C-17.67 7.01 -17.34 6.02 -17 5 C-14.49333674 3.35427015 -11.73449024 2.22223428 -9 1 C-8.0925 0.566875 -7.185 0.13375 -6.25 -0.3125 C-3.67665872 -1.09879872 -2.52785665 -0.73817663 0 0 Z " fill="#AAB2BD" transform="translate(270,767)"/>
<path d="M0 0 C0.66 0.33 1.32 0.66 2 1 C2.625 3.0625 2.625 3.0625 3 5 C3.721875 5.12375 4.44375 5.2475 5.1875 5.375 C7.95721894 5.9904931 10.3970354 6.88444374 13 8 C9.3051074 9.36719679 7.2624745 8.59139689 3.6875 7.125 C-0.6268346 5.4478458 -4.40132666 4.40877096 -9 4 C-6.06195683 2.47657021 -3.13439441 1.07229283 0 0 Z " fill="#292C3E" transform="translate(129,964)"/>
<path d="M0 0 C-0.33 0.66 -0.66 1.32 -1 2 C-3.8359375 2.37890625 -3.8359375 2.37890625 -7.375 2.5625 C-12.27255474 2.82302499 -12.27255474 2.82302499 -17 4 C-18.99961564 4.03920815 -21.00049364 4.04443347 -23 4 C-16.88615187 -1.62474028 -7.7495581 -0.11452549 0 0 Z " fill="#BDC4CB" transform="translate(217,662)"/>
<path d="M0 0 C0.33 0 0.66 0 1 0 C1 6.93 1 13.86 1 21 C-2.69243752 20.07689062 -4.25545743 19.45048444 -7 17 C-7 16.34 -7 15.68 -7 15 C-4.03824877 15.61277612 -2.61941217 16.25372522 0 18 C0 12.06 0 6.12 0 0 Z " fill="#2E3341" transform="translate(484,946)"/>
<path d="M0 0 C0.66 0.33 1.32 0.66 2 1 C-3.77853304 5.21548721 -9.40619352 9.17408294 -16 12 C-16.66 11.67 -17.32 11.34 -18 11 C-15.09065208 8.5755434 -12.38799806 6.65649352 -9 5 C-6.66875707 3.65137994 -4.34333608 2.29382776 -2.0234375 0.92578125 C-1.35570312 0.62027344 -0.68796875 0.31476562 0 0 Z " fill="#CDD5E0" transform="translate(210,770)"/>
<path d="M0 0 C3.91593446 0.78318689 7.36406635 2.39179858 11 4 C11 4.66 11 5.32 11 6 C11.66 6 12.32 6 13 6 C13 6.66 13 7.32 13 8 C14.32 8.66 15.64 9.32 17 10 C13.0448329 10 10.85157489 8.54912492 7.375 6.6875 C6.20710938 6.07261719 5.03921875 5.45773437 3.8359375 4.82421875 C1 3 1 3 0 0 Z " fill="#878F9D" transform="translate(293,876)"/>
<path d="M0 0 C-1.35350596 4.06051787 -3.27512664 4.64228453 -6.9375 6.75 C-8.01902344 7.38421875 -9.10054688 8.0184375 -10.21484375 8.671875 C-11.13394531 9.11015625 -12.05304688 9.5484375 -13 10 C-13.66 9.67 -14.32 9.34 -15 9 C-4.75 0 -4.75 0 0 0 Z " fill="#A9B3BF" transform="translate(81,820)"/>
<path d="M0 0 C2.81708245 1.37681732 5.55443471 2.83513619 8.25 4.4375 C8.95640625 4.84871094 9.6628125 5.25992188 10.390625 5.68359375 C10.92171875 6.11800781 11.4528125 6.55242188 12 7 C12 7.99 12 8.98 12 10 C8.39428893 9.40716913 6.45570562 7.97258223 3.75 5.5625 C3.04359375 4.94503906 2.3371875 4.32757812 1.609375 3.69140625 C0 2 0 2 0 0 Z " fill="#99A2AE" transform="translate(417,778)"/>
<path d="M0 0 C4.82829428 1.48700714 7.7487769 4.21283256 11.3125 7.625 C12.13717773 8.3984375 12.13717773 8.3984375 12.97851562 9.1875 C14.32498054 10.45200618 15.66332535 11.72514922 17 13 C16.01 13.33 15.02 13.66 14 14 C13.60167969 13.50628906 13.20335937 13.01257813 12.79296875 12.50390625 C11.99826172 11.54291016 11.99826172 11.54291016 11.1875 10.5625 C10.66542969 9.92441406 10.14335937 9.28632812 9.60546875 8.62890625 C7.99165589 6.7451725 7.99165589 6.7451725 5 6 C5 5.34 5 4.68 5 4 C4.360625 3.896875 3.72125 3.79375 3.0625 3.6875 C2.381875 3.460625 1.70125 3.23375 1 3 C0.67 2.01 0.34 1.02 0 0 Z " fill="#8E969F" transform="translate(361,722)"/>
<path d="M0 0 C0.66 0.33 1.32 0.66 2 1 C1.175 1.7425 0.35 2.485 -0.5 3.25 C-3.44844853 5.87387385 -3.44844853 5.87387385 -3 10 C-3.556875 10.12375 -4.11375 10.2475 -4.6875 10.375 C-7.22114364 11.05976855 -9.57921032 11.99133763 -12 13 C-8.19524578 8.43969176 -4.25030379 4.14910608 0 0 Z " fill="#8C949C" transform="translate(13,752)"/>
<path d="M0 0 C3.18185993 0.36998371 5.52565676 0.69694737 8.25 2.4375 C12.26016852 4.71600484 16.48566255 5.25491518 21 6 C21 6.33 21 6.66 21 7 C13.51969639 7.71925996 7.60652292 5.4882441 1 2 C0.67 1.34 0.34 0.68 0 0 Z " fill="#686E80" transform="translate(352,917)"/>
<path d="M0 0 C0 0.66 0 1.32 0 2 C-1.63790712 3.04644066 -3.31008021 4.0398183 -5 5 C-5.721875 5.556875 -6.44375 6.11375 -7.1875 6.6875 C-9 8 -9 8 -11 8 C-11 6.68 -11 5.36 -11 4 C-9.73308493 3.32591692 -8.46129251 2.66099503 -7.1875 2 C-6.47980469 1.62875 -5.77210938 1.2575 -5.04296875 0.875 C-3 0 -3 0 0 0 Z " fill="#76808A" transform="translate(269,768)"/>
<path d="M0 0 C2 1 2 1 2 1 Z M0 2 C-4.82431428 5.49346896 -10.31133041 6.59526723 -16 8 C-13.6649442 4.4974163 -12.43849279 4.12950341 -8.5625 2.75 C-7.59441406 2.39421875 -6.62632813 2.0384375 -5.62890625 1.671875 C-3 1 -3 1 0 2 Z " fill="#545C69" transform="translate(131,900)"/>
<path d="M0 0 C3 3.75 3 3.75 3 6 C3.66 6 4.32 6 5 6 C5.12375 6.804375 5.2475 7.60875 5.375 8.4375 C5.684375 9.7059375 5.684375 9.7059375 6 11 C6.66 11.33 7.32 11.66 8 12 C7.01 12 6.02 12 5 12 C3.17578125 9.8125 3.17578125 9.8125 1.3125 7 C0.68988281 6.071875 0.06726563 5.14375 -0.57421875 4.1875 C-1.04472656 3.465625 -1.51523437 2.74375 -2 2 C-1.34 1.34 -0.68 0.68 0 0 Z " fill="#AFB9C3" transform="translate(24,840)"/>
<path d="M0 0 C0 0.66 0 1.32 0 2 C-1.93475671 2.53093324 -3.87293155 3.04942317 -5.8125 3.5625 C-7.43091797 3.99755859 -7.43091797 3.99755859 -9.08203125 4.44140625 C-12 5 -12 5 -15 4 C-10.7923604 -0.2076396 -5.6868542 -0.22747417 0 0 Z " fill="#656D7A" transform="translate(145,923)"/>
<path d="M0 0 C0.33 0.66 0.66 1.32 1 2 C-5.11090483 2.09945415 -10.97403427 2.0712828 -17 1 C-17 0.67 -17 0.34 -17 0 C-15.10507254 -0.19644384 -13.20899097 -0.38177288 -11.3125 -0.5625 C-9.72888672 -0.71912109 -9.72888672 -0.71912109 -8.11328125 -0.87890625 C-5.15714352 -0.99388777 -2.82770023 -0.85085755 0 0 Z " fill="#474B5C" transform="translate(238,923)"/>
<path d="M0 0 C0 0.66 0 1.32 0 2 C-1.74468372 2.70088156 -3.49601161 3.38524009 -5.25 4.0625 C-6.22453125 4.44535156 -7.1990625 4.82820312 -8.203125 5.22265625 C-11.04007395 6.01113787 -12.29409552 6.02437812 -15 5 C-13.25447527 4.15733289 -11.5033792 3.32619962 -9.75 2.5 C-8.77546875 2.0359375 -7.8009375 1.571875 -6.796875 1.09375 C-4 0 -4 0 0 0 Z " fill="#868E9C" transform="translate(425,896)"/>
<path d="M0 0 C4.3177458 0.50797009 8.03302114 1.19682779 12 3 C11.67 3.99 11.34 4.98 11 6 C9.3509698 5.38348417 7.70584159 4.75652258 6.0625 4.125 C5.14597656 3.77695312 4.22945313 3.42890625 3.28515625 3.0703125 C1 2 1 2 0 0 Z " fill="#343A4B" transform="translate(435,918)"/>
<path d="M0 0 C0.66 0.33 1.32 0.66 2 1 C-1.90456127 4.53269829 -4.80177328 6.63855967 -10 8 C-6.91367389 4.7373124 -4.06516496 1.97764782 0 0 Z " fill="#78828C" transform="translate(49,841)"/>
<path d="M0 0 C0.66 0.33 1.32 0.66 2 1 C0.61990379 4.33523252 -0.84950652 6.18607951 -4 8 C-4.99 7.67 -5.98 7.34 -7 7 C-4.69 4.69 -2.38 2.38 0 0 Z " fill="#CBD4DD" transform="translate(230,753)"/>
<path d="M0 0 C-0.99 0.33 -1.98 0.66 -3 1 C-3 1.66 -3 2.32 -3 3 C-5.64 3.66 -8.28 4.32 -11 5 C-10 2 -10 2 -6.625 0.25 C-3 -1 -3 -1 0 0 Z " fill="#939CA4" transform="translate(53,725)"/>
<path d="M0 0 C-0.99 0.33 -1.98 0.66 -3 1 C-3 1.66 -3 2.32 -3 3 C-5.64 3.33 -8.28 3.66 -11 4 C-10.67 3.01 -10.34 2.02 -10 1 C-6.59437148 0.22157062 -3.49234244 -0.09978121 0 0 Z " fill="#363D4C" transform="translate(143,926)"/>
<path d="M0 0 C3.0831351 1.19899698 6.06279492 2.47700477 9 4 C9 4.33 9 4.66 9 5 C7.081875 4.8453125 7.081875 4.8453125 5.125 4.6875 C4.04605469 4.60048828 4.04605469 4.60048828 2.9453125 4.51171875 C1 4 1 4 -1 1 C-0.67 0.67 -0.34 0.34 0 0 Z " fill="#2A2C3D" transform="translate(151,974)"/>
<path d="M0 0 C0.99 0 1.98 0 3 0 C1.55609075 3.80666984 -0.34952803 5.26602582 -4 7 C-4.66 6.67 -5.32 6.34 -6 6 C-4 4 -2 2 0 0 Z " fill="#767F8A" transform="translate(200,824)"/>
<path d="M0 0 C1.32 0.33 2.64 0.66 4 1 C4 1.66 4 2.32 4 3 C5.32 3.33 6.64 3.66 8 4 C8.33 5.32 8.66 6.64 9 8 C4.7257442 6.4169423 2.73468206 3.49431596 0 0 Z " fill="#CAD3DE" transform="translate(106,748)"/>
<path d="M0 0 C7.48291572 6.15034169 7.48291572 6.15034169 10 10 C6.36044707 9.11033151 4.46353349 8.62337263 2.1875 5.5625 C1 3 1 3 0 0 Z " fill="#929BA4" transform="translate(378,736)"/>
<path d="M0 0 C0 0.66 0 1.32 0 2 C-4.455 3.485 -4.455 3.485 -9 5 C-6.3784932 1.13015663 -4.82784953 0 0 0 Z " fill="#444859" transform="translate(136,960)"/>
<path d="M0 0 C-1.97420135 2.52259061 -2.96745642 2.9929808 -6.1875 3.6875 C-7.5796875 3.8421875 -7.5796875 3.8421875 -9 4 C-6.3515138 0.02727069 -4.69305063 -1.56435021 0 0 Z " fill="#1C2131" transform="translate(381,940)"/>
<path d="M0 0 C-3.44450737 2.29633824 -5.93812283 2.54016485 -10 3 C-10 2.34 -10 1.68 -10 1 C-3.71428571 -1.42857143 -3.71428571 -1.42857143 0 0 Z " fill="#535A69" transform="translate(415,903)"/>
<path d="M0 0 C0.66 0.33 1.32 0.66 2 1 C1.67 1.66 1.34 2.32 1 3 C0.34 3 -0.32 3 -1 3 C-1.33 3.99 -1.66 4.98 -2 6 C-4.5625 7.1875 -4.5625 7.1875 -7 8 C-6.02133662 6.85373678 -5.04205413 5.70800212 -4.0625 4.5625 C-3.51722656 3.92441406 -2.97195312 3.28632812 -2.41015625 2.62890625 C-1.63204305 1.73008851 -0.84063472 0.84063472 0 0 Z " fill="#8A949C" transform="translate(25,740)"/>
<path d="M0 0 C0.33 0.66 0.66 1.32 1 2 C3.01669827 3.13350534 3.01669827 3.13350534 5 4 C5 4.99 5 5.98 5 7 C2.53199953 5.84826645 0.95216435 4.95216435 -1 3 C-0.67 2.01 -0.34 1.02 0 0 Z " fill="#D0D6E2" transform="translate(98,738)"/>
<path d="M0 0 C4 1 4 1 5.8125 3.4375 C6.204375 4.283125 6.59625 5.12875 7 6 C6.67 6.66 6.34 7.32 6 8 C4.02 5.36 2.04 2.72 0 0 Z " fill="#363C4E" transform="translate(5,875)"/>
<path d="M0 0 C-1.1875 1.5 -1.1875 1.5 -3 3 C-5.6875 3.1875 -5.6875 3.1875 -8 3 C-8 2.34 -8 1.68 -8 1 C-5.29120665 -0.35439668 -2.99066732 -0.06501451 0 0 Z " fill="#AAB2BC" transform="translate(189,830)"/>
<path d="M0 0 C0.33 0.99 0.66 1.98 1 3 C-1 5 -1 5 -3.625 5.125 C-4.40875 5.08375 -5.1925 5.0425 -6 5 C-2.25 1.125 -2.25 1.125 0 0 Z " fill="#919BA3" transform="translate(40,729)"/>
<path d="M0 0 C0.99 0.33 1.98 0.66 3 1 C0.03 3.475 0.03 3.475 -3 6 C-3.66 5.67 -4.32 5.34 -5 5 C-3.35 3.35 -1.7 1.7 0 0 Z " fill="#888F9B" transform="translate(442,883)"/>
<path d="M0 0 C-4.43076923 3.07692308 -4.43076923 3.07692308 -7.3125 2.6875 C-8.1478125 2.3471875 -8.1478125 2.3471875 -9 2 C-3.375 -1.125 -3.375 -1.125 0 0 Z " fill="#B7C0C8" transform="translate(193,667)"/>
</svg>
